<svg version="1.1" id="Layer_1" xmlns="http://www.w3.org/2000/svg" xmlns:xlink="http://www.w3.org/1999/xlink" x="0px" y="0px"
	 width="100%" viewBox="0 0 225 225" enable-background="new 0 0 225 225" xml:space="preserve">
<path fill="#0277DA" opacity="1.000000" stroke="none" 
	d="
M155.000000,226.000000 
	C103.333336,226.000000 52.166672,226.000000 1.000007,226.000000 
	C1.000005,151.000000 1.000005,76.000015 1.000002,1.000017 
	C75.999992,1.000011 150.999985,1.000011 225.999969,1.000006 
	C225.999985,75.999985 225.999985,150.999969 226.000000,225.999969 
	C202.500000,226.000000 179.000000,226.000000 155.000000,226.000000 
M172.945572,161.065750 
	C172.945572,161.065750 172.992905,161.214157 172.595459,160.617035 
	C171.312698,160.166214 170.029938,159.715408 168.825638,159.272507 
	C168.825638,159.272507 168.812103,159.350189 168.722260,158.689972 
	C169.667953,157.944992 171.103394,156.358978 171.485672,156.581589 
	C176.956894,159.767395 179.502975,157.305283 180.722488,151.364334 
	C177.407013,146.726013 168.134903,145.623291 163.109497,149.156357 
	C163.109497,149.156357 163.215958,149.205215 162.364120,149.085266 
	C156.931366,149.330978 155.784058,150.539398 156.085785,155.909805 
	C156.168167,157.376053 156.780807,158.855591 156.627167,160.272308 
	C156.558746,160.903305 155.195251,161.393829 154.193100,161.149780 
	C153.420639,158.527740 152.648178,155.905685 152.120377,152.573486 
	C153.737228,149.050323 155.354065,145.527161 157.014725,141.663803 
	C157.433975,140.995117 157.776993,139.827774 158.286560,139.749863 
	C159.911728,139.501404 161.598801,139.657761 163.261963,139.657761 
	C163.332916,139.155502 163.403854,138.653244 163.474808,138.150986 
	C162.630295,137.453812 161.785797,136.756638 161.536072,135.716812 
	C165.998322,130.639923 171.997345,126.245560 174.615738,120.349800 
	C180.835251,106.345490 182.460068,91.237274 179.781219,76.009750 
	C176.330551,56.394882 164.301361,46.073956 144.988022,47.210594 
	C133.620911,47.879570 122.791611,55.171619 118.596535,67.576111 
	C117.835747,70.743439 116.179787,74.006905 116.507416,77.057320 
	C117.119576,82.756844 118.883186,88.332695 120.073845,93.940170 
	C120.073845,93.940170 120.095421,93.846695 120.091057,94.592186 
	C121.129036,96.030586 122.167015,97.468987 123.115845,98.893410 
	C123.115845,98.893410 123.132721,98.804764 123.101891,99.559570 
	C123.716621,103.457619 126.237564,104.995506 130.659332,105.139862 
	C142.549683,111.762199 153.101929,109.867599 162.549927,99.685219 
	C162.648804,108.555084 160.394073,115.874199 152.617996,121.175911 
	C152.125183,121.576317 151.632355,121.976723 151.160049,122.252716 
	C151.160049,122.252716 151.283417,122.278748 150.524094,122.201714 
	C146.695953,121.805000 142.867828,121.408287 139.039688,121.011566 
	C139.017792,121.179970 138.995895,121.348366 138.973999,121.516762 
	C140.643814,121.899605 142.313644,122.282440 143.983459,122.665283 
	C143.937546,123.152313 143.891617,123.639343 143.845688,124.126366 
	C138.812607,124.458260 133.779510,124.790146 127.910065,125.159592 
	C126.647003,125.725906 124.289314,126.298286 124.292412,126.857597 
	C124.319481,131.749908 124.768372,136.639893 125.578644,142.065521 
	C126.714241,142.384842 127.849831,142.704163 129.130997,143.688248 
	C129.413727,144.787460 129.696472,145.886673 129.883621,147.050461 
	C129.883621,147.050461 130.015182,147.021957 130.693939,147.020187 
	C131.146454,147.018631 131.598984,147.017075 132.446274,147.445099 
	C132.988251,148.006622 133.530243,148.568130 133.739868,149.720886 
	C123.686577,157.126236 124.814369,173.299377 136.126740,180.330460 
	C135.771576,182.088608 135.516724,183.862579 138.170349,183.719788 
	C141.116852,183.561218 144.055145,183.250320 147.193481,183.190262 
	C147.330887,183.269760 147.468292,183.349258 147.605698,183.428772 
	C147.405975,183.283920 147.206268,183.139053 147.542297,182.560074 
	C150.684296,181.678284 153.826279,180.796494 157.737701,180.243896 
	C163.826233,180.494247 169.914780,180.744598 176.051346,181.082626 
	C176.051346,181.082626 175.995163,181.003159 175.911987,180.189606 
	C175.824860,179.651245 175.737732,179.112900 175.663223,178.510422 
	C175.663223,178.510422 175.728561,178.511948 176.279114,178.908203 
	C177.195786,178.896179 178.112457,178.884140 179.029129,178.872101 
	C178.952148,177.825058 178.875168,176.778030 179.273911,175.094650 
	C181.173309,169.621902 179.596191,165.345230 174.459518,161.703537 
	C173.905563,161.507202 173.351593,161.310883 172.945572,161.065750 
M82.020378,121.011017 
	C82.020378,121.011017 82.075066,121.050804 81.340637,121.051926 
	C80.000587,121.903130 78.660545,122.754326 77.305176,123.526382 
	C77.305176,123.526382 77.384628,123.539986 76.656769,123.293106 
	C69.132050,123.571709 61.605953,123.822830 54.086205,124.200371 
	C53.656521,124.221939 53.278706,125.276512 53.080608,126.682426 
	C52.788822,129.761765 52.508072,132.842194 52.202415,135.920151 
	C51.832626,139.643936 53.823627,141.575928 57.240242,141.759048 
	C68.635071,142.369843 79.884399,141.944427 90.444618,136.102356 
	C91.314758,135.946396 92.311050,136.012283 93.035583,135.600281 
	C100.526855,131.340469 103.663818,123.691521 106.943390,116.478020 
	C108.941101,112.083977 111.752625,107.219566 108.856735,101.289246 
	C108.930183,100.878586 109.003632,100.467934 109.713951,99.635155 
	C109.974335,92.334740 110.379990,85.034302 110.378517,77.733940 
	C110.378204,76.182755 108.893883,74.631874 107.929054,72.319931 
	C106.499947,68.824188 105.476860,65.087112 103.568413,61.876274 
	C96.849388,50.572021 86.404320,46.428566 73.668396,47.187069 
	C61.566566,47.907810 53.364712,53.956520 48.760632,65.949669 
	C46.243420,74.382706 45.638607,82.817619 48.873581,91.111221 
	C48.873581,91.111221 48.708206,91.223579 48.745144,91.962357 
	C51.060658,97.761032 54.098019,102.974487 60.692196,106.189957 
	C62.801022,106.845001 64.909851,107.500053 66.811691,108.720703 
	C66.930008,109.755356 67.013680,111.687630 67.171684,111.693733 
	C71.426872,111.857986 75.689690,111.824654 80.760010,111.824654 
	C79.479927,110.372246 79.065468,109.902000 78.651009,109.431755 
	C82.241768,110.180679 87.384789,106.916420 88.206596,113.110260 
	C88.206596,113.110260 88.352791,113.115257 87.805634,113.406532 
	C86.392342,114.096916 84.979050,114.787300 83.421997,115.547905 
	C83.675896,116.909798 83.910637,118.168922 84.034676,119.841721 
	C83.852386,120.097076 83.604553,120.217232 82.823578,120.436554 
	C82.544754,120.647667 82.265930,120.858772 82.020378,121.011017 
M47.249275,165.182236 
	C47.249275,165.182236 47.385651,165.131226 46.769207,165.558853 
	C46.613102,168.066757 46.456993,170.574646 46.369030,173.179337 
	C46.369030,173.179337 46.275810,173.252289 46.186611,174.115555 
	C46.159157,178.256027 47.992844,180.697830 53.163300,180.840393 
	C56.254444,180.146149 59.338448,179.417236 62.440891,178.777817 
	C63.433090,178.573303 64.503517,178.416214 65.486847,178.568573 
	C67.666550,178.906250 69.813759,179.453705 72.510513,180.292648 
	C74.285667,178.637238 76.060829,176.981842 77.722664,175.432114 
	C79.341476,176.271439 81.395515,177.336411 83.603905,178.346817 
	C83.603905,178.346817 83.678452,178.492569 83.317230,179.241470 
	C83.217491,179.500031 83.117760,179.758575 83.042625,180.767075 
	C84.264854,182.042160 85.297585,184.027023 86.756271,184.416489 
	C88.671753,184.927902 90.922821,184.182434 93.817703,183.979507 
	C94.869110,183.976562 95.920517,183.973618 97.813675,183.988449 
	C99.432831,184.211349 101.069817,184.347504 102.667282,184.675888 
	C105.633568,185.285675 107.063957,184.148743 107.793289,181.094101 
	C115.212631,181.511200 116.815277,179.967316 116.935791,172.222565 
	C116.979462,169.416122 117.016983,166.607391 116.953392,163.802063 
	C116.887207,160.882706 118.116234,159.255417 121.065437,158.600098 
	C125.983879,157.507248 127.112488,154.616730 124.117111,149.124893 
	C120.718712,148.930298 117.215027,148.292709 114.736168,151.661987 
	C114.611298,151.831726 113.542351,151.306885 113.121780,150.533813 
	C113.575027,149.531677 114.028282,148.529526 115.147873,146.054092 
	C109.592255,147.675247 105.157906,148.969208 100.975136,150.044113 
	C100.975136,150.044113 100.737144,150.278229 100.557831,149.581573 
	C96.145035,146.205383 91.610176,146.020157 86.802177,149.232193 
	C86.802177,149.232193 86.584198,149.167633 85.878868,149.224258 
	C85.290619,149.586014 84.702370,149.947754 84.141350,150.207092 
	C84.141350,150.207092 84.241882,150.240601 83.478844,150.186996 
	C78.423546,150.359680 78.122932,154.474945 76.409706,157.720810 
	C74.115372,155.487076 71.821030,153.253326 69.008163,150.505936 
	C62.392670,148.029205 55.926575,147.965500 48.976616,151.430145 
	C50.160496,153.633484 51.088871,155.361282 51.928360,157.806488 
	C51.504452,159.392975 51.080540,160.979446 50.568630,162.740768 
	C50.568630,162.740768 50.382446,162.680374 49.656898,162.481812 
	C48.873112,163.426712 48.089325,164.371613 47.249275,165.182236 
z"/>
<path fill="#F5FAFB" opacity="1.000000" stroke="none" 
	d="
M119.142990,67.069542 
	C122.791611,55.171619 133.620911,47.879570 144.988022,47.210594 
	C164.301361,46.073956 176.330551,56.394882 179.781219,76.009750 
	C182.460068,91.237274 180.835251,106.345490 174.615738,120.349800 
	C171.997345,126.245560 165.998322,130.639923 160.875305,135.938782 
	C148.918320,140.640564 137.268280,142.806168 125.092125,141.530563 
	C124.768372,136.639893 124.319481,131.749908 124.292412,126.857597 
	C124.289314,126.298286 126.647003,125.725906 128.673553,125.396820 
	C136.981476,126.223602 144.476913,126.494019 151.283417,122.278748 
	C151.283417,122.278748 151.160049,122.252716 151.479095,122.264877 
	C152.285034,121.869125 152.771942,121.461212 153.258850,121.053299 
	C160.394073,115.874199 162.648804,108.555084 162.549927,99.685219 
	C153.101929,109.867599 142.549683,111.762199 130.074142,104.860886 
	C127.370209,102.656189 125.251465,100.730476 123.132721,98.804764 
	C123.132721,98.804764 123.115845,98.893410 123.088196,98.567780 
	C122.072174,96.776993 121.083794,95.311844 120.095421,93.846695 
	C120.095421,93.846695 120.073845,93.940170 120.107147,93.541565 
	C117.309303,84.547401 117.613396,75.831917 119.142990,67.069542 
M138.079865,70.004829 
	C134.753540,77.044205 134.940201,83.741539 140.383911,90.602173 
	C146.373505,94.054108 152.176788,93.951057 157.066879,90.063354 
	C162.125946,86.041313 163.014374,80.655121 161.288864,74.779213 
	C160.706818,72.797096 159.083282,71.141075 158.336792,69.183113 
	C156.302567,63.847675 151.850754,63.869411 147.317413,63.855686 
	C143.053268,63.842777 140.067627,65.585052 138.079865,70.004829 
z"/>
<path fill="#F7FCFB" opacity="1.000000" stroke="none" 
	d="
M83.291168,120.202179 
	C83.604553,120.217232 83.852386,120.097076 84.410690,119.482841 
	C85.975403,117.121063 87.164093,115.118156 88.352791,113.115257 
	C88.352791,113.115257 88.206596,113.110260 88.502380,112.983002 
	C89.588905,109.907982 90.379646,106.960236 91.467178,103.841232 
	C94.112785,98.515564 93.825348,98.015205 87.784637,97.184105 
	C87.866806,98.496002 87.946259,99.764595 88.014069,101.014999 
	C88.002419,100.996803 88.038063,101.022552 87.843597,101.196068 
	C87.428612,101.836136 87.208084,102.302681 86.759460,102.846771 
	C86.531364,102.924316 86.060944,103.028542 85.863892,103.197159 
	C85.438545,103.825600 85.210243,104.285423 84.606911,104.876694 
	C78.494148,106.057121 72.756409,107.106110 67.018677,108.155098 
	C64.909851,107.500053 62.801022,106.845001 60.319374,105.699875 
	C57.266792,100.909332 54.672512,96.550804 51.827492,92.362610 
	C51.322712,91.619522 49.774559,91.585190 48.708206,91.223579 
	C48.708206,91.223579 48.873581,91.111221 48.861565,90.770996 
	C48.929836,82.057709 49.010132,73.684647 49.090427,65.311584 
	C53.364712,53.956520 61.566566,47.907810 73.668396,47.187069 
	C86.404320,46.428566 96.849388,50.572021 103.568413,61.876274 
	C105.476860,65.087112 106.499947,68.824188 107.950348,73.111404 
	C108.340118,82.621017 108.708595,91.339142 109.077080,100.057274 
	C109.003632,100.467934 108.930183,100.878586 108.723083,101.940712 
	C106.551506,115.947449 101.216103,127.450668 90.016487,135.660202 
	C79.884399,141.944427 68.635071,142.369843 57.240242,141.759048 
	C53.823627,141.575928 51.832626,139.643936 52.202415,135.920151 
	C52.508072,132.842194 52.788822,129.761765 53.241035,125.975632 
	C55.031158,125.364777 56.679787,125.667465 58.287212,125.520241 
	C64.660019,124.936577 71.019936,124.212212 77.384628,123.539993 
	C77.384628,123.539986 77.305176,123.526382 77.662354,123.520020 
	C79.371376,122.692703 80.723221,121.871750 82.075066,121.050797 
	C82.075066,121.050804 82.020378,121.011017 82.293335,121.025467 
	C82.807922,120.760674 83.049545,120.481422 83.291168,120.202179 
M68.724907,91.352097 
	C69.320633,92.208595 69.839104,93.727837 70.525352,93.807831 
	C73.638084,94.170692 76.838272,93.850540 79.931320,94.298553 
	C84.087532,94.900551 86.157074,93.081566 87.284279,88.969009 
	C87.284279,88.969009 87.674927,88.832680 88.388031,88.804245 
	C89.066650,87.217163 89.745262,85.630089 90.355057,83.129112 
	C89.958366,79.570053 89.794907,75.965096 89.105728,72.463600 
	C88.250999,68.121025 85.734802,64.479485 81.299660,63.704250 
	C72.711906,62.203171 68.889931,63.712631 66.840034,69.763680 
	C65.444511,73.883095 65.587570,78.523727 64.957451,83.733688 
	C65.002571,85.231651 64.860931,86.774330 65.202560,88.201309 
	C65.310020,88.650162 66.714684,88.788452 68.006607,89.466103 
	C68.388924,89.955353 68.771248,90.444603 68.724907,91.352097 
z"/>
<path fill="#E7F4F6" opacity="1.000000" stroke="none" 
	d="
M46.275810,173.252289 
	C46.275810,173.252289 46.369030,173.179337 46.362213,172.723572 
	C46.698814,169.888947 47.042233,167.510086 47.385651,165.131226 
	C47.385651,165.131226 47.249275,165.182236 47.538048,165.115814 
	C48.678699,164.259705 49.530571,163.470047 50.382446,162.680374 
	C50.382446,162.680374 50.568630,162.740768 50.984463,162.545746 
	C54.489914,161.788910 57.608955,161.347702 60.654320,160.604553 
	C61.832680,160.316986 62.844093,159.345291 63.931564,158.685272 
	C62.817188,157.734222 61.714699,156.002563 60.586113,155.985382 
	C57.736088,155.941986 54.874313,156.670090 52.017242,157.089081 
	C51.088871,155.361282 50.160496,153.633484 48.976616,151.430145 
	C55.926575,147.965500 62.392670,148.029205 69.442917,151.104904 
	C75.162712,160.766968 73.007195,170.383011 71.974213,179.915619 
	C69.813759,179.453705 67.666550,178.906250 65.486847,178.568573 
	C64.503517,178.416214 63.433090,178.573303 62.440891,178.777817 
	C59.338448,179.417236 56.254444,180.146149 52.679428,180.499634 
	C50.222313,177.856674 48.249062,175.554474 46.275810,173.252289 
M56.699265,173.461578 
	C58.865608,172.752701 61.031952,172.043823 63.781300,170.843781 
	C64.180321,169.328690 64.579338,167.813614 65.193428,165.481918 
	C62.137463,165.752502 59.697666,165.474396 57.669292,166.259384 
	C54.295490,167.565048 53.111065,169.960846 56.699265,173.461578 
z"/>
<path fill="#EAF6F7" opacity="1.000000" stroke="none" 
	d="
M151.875702,153.283630 
	C152.648178,155.905685 153.420639,158.527740 154.191345,161.996323 
	C154.422668,165.207703 153.692276,166.459824 150.974045,166.336456 
	C146.903503,166.151703 142.814087,166.191071 138.742737,166.367355 
	C137.854095,166.405853 137.007858,167.423477 136.147644,168.345947 
	C137.427277,170.166794 138.701370,171.631836 140.272339,173.345367 
	C144.509384,173.263977 148.449539,172.934082 152.604431,172.586227 
	C152.934143,173.896454 153.310577,175.392349 153.387421,177.004379 
	C147.997559,182.062958 141.960129,181.234619 135.847839,179.950119 
	C124.814369,173.299377 123.686577,157.126236 134.352051,149.374146 
	C137.671585,148.912689 140.378952,148.797989 143.442230,148.790894 
	C146.490662,150.360214 149.183197,151.821930 151.875702,153.283630 
M144.490112,156.668777 
	C138.366974,154.935608 137.344208,155.455292 136.491974,160.784592 
	C139.740875,160.784592 142.976471,160.784592 146.814026,160.784592 
	C146.177368,159.195572 145.717148,158.046936 144.490112,156.668777 
z"/>
<path fill="#EBF7F8" opacity="1.000000" stroke="none" 
	d="
M174.826202,162.167068 
	C179.596191,165.345230 181.173309,169.621902 178.774551,175.571198 
	C177.426315,176.869141 176.577438,177.690536 175.728561,178.511948 
	C175.728561,178.511948 175.663223,178.510422 175.261353,178.632980 
	C169.165543,180.240372 163.504211,181.114471 158.049652,177.566467 
	C157.747437,176.828018 157.458908,176.382065 157.102509,175.591919 
	C157.046616,174.546539 157.058578,173.845322 157.501068,173.072479 
	C161.061417,173.319748 164.198654,173.920410 167.317902,173.838272 
	C168.869720,173.797424 170.388580,172.504608 171.922333,171.778137 
	C170.976303,170.581467 170.207718,169.155289 169.036560,168.249817 
	C167.751511,167.256302 166.092346,166.748886 164.601364,166.019104 
	C155.548004,161.587982 154.991959,154.829788 163.215958,149.205215 
	C163.215958,149.205215 163.109497,149.156357 163.547379,149.188736 
	C169.326096,148.803879 174.782211,147.730164 179.159546,152.239685 
	C178.340698,154.005432 177.677658,155.444443 177.116531,156.662262 
	C174.266220,155.911560 172.056183,155.050034 169.786179,154.841614 
	C168.524658,154.725800 167.163147,155.699326 165.846695,156.181900 
	C166.835159,157.237991 167.823639,158.294098 168.812103,159.350189 
	C168.812103,159.350189 168.825638,159.272507 168.966812,159.563507 
	C170.402969,160.307739 171.697937,160.760941 172.992905,161.214142 
	C172.992905,161.214157 172.945572,161.065750 173.036926,161.350555 
	C173.694244,161.812576 174.260223,161.989822 174.826202,162.167068 
z"/>
<path fill="#E7F4F8" opacity="1.000000" stroke="none" 
	d="
M86.584198,149.167633 
	C86.584198,149.167633 86.802177,149.232193 87.339249,149.151413 
	C92.163254,149.473160 96.450203,149.875702 100.737144,150.278229 
	C100.737144,150.278229 100.975136,150.044113 100.888458,150.533905 
	C100.463432,152.945953 100.125076,154.868195 99.475327,156.925018 
	C96.755844,156.728897 94.243767,155.796921 91.961090,156.191620 
	C87.081421,157.035355 84.575363,162.632507 86.061935,168.297974 
	C87.138458,172.400726 90.764565,173.919754 96.180199,172.775299 
	C97.683090,172.457718 99.312958,172.740921 100.745148,173.016327 
	C100.703667,174.269974 100.801590,175.255814 100.871490,176.446899 
	C100.843460,176.652145 101.042145,177.015717 100.947739,177.269516 
	C100.350609,178.031677 99.847870,178.540024 99.202393,179.079163 
	C99.059647,179.109940 99.013588,179.398331 98.704773,179.548416 
	C96.602669,180.174332 94.809380,180.650162 92.706650,181.062668 
	C91.474251,181.228439 90.551277,181.457535 89.422104,181.367432 
	C88.485191,180.896820 87.754486,180.745407 87.057228,180.705872 
	C87.090683,180.817719 87.313271,180.747147 87.257217,180.412491 
	C86.026917,179.549423 84.852684,179.020996 83.678452,178.492569 
	C83.678452,178.492569 83.603905,178.346817 83.350914,178.092224 
	C76.871063,172.771835 77.566978,165.798340 78.008255,158.736603 
	C78.129364,158.544800 78.149498,158.090347 78.387924,157.854736 
	C80.498199,155.159607 82.370041,152.700104 84.241882,150.240601 
	C84.241882,150.240601 84.141350,150.207092 84.474792,150.202332 
	C85.400223,149.854263 85.992210,149.510956 86.584198,149.167633 
z"/>
<path fill="#0676D7" opacity="1.000000" stroke="none" 
	d="
M100.884567,172.748505 
	C99.312958,172.740921 97.683090,172.457718 96.180199,172.775299 
	C90.764565,173.919754 87.138458,172.400726 86.061935,168.297974 
	C84.575363,162.632507 87.081421,157.035355 91.961090,156.191620 
	C94.243767,155.796921 96.755844,156.728897 99.808533,156.920929 
	C107.045631,157.688599 104.316727,162.968491 104.733269,166.486954 
	C105.264290,170.972458 104.984047,175.553986 105.269257,180.269653 
	C105.992805,180.672577 106.500610,180.899979 107.008415,181.127396 
	C107.063957,184.148743 105.633568,185.285675 102.667282,184.675888 
	C101.069817,184.347504 99.432831,184.211349 97.597183,183.704651 
	C97.924995,182.080017 98.469292,180.739166 99.013596,179.398331 
	C99.013588,179.398331 99.059647,179.109940 99.501678,179.153641 
	C100.646057,178.924179 101.348404,178.651001 102.050758,178.377838 
	C101.714554,177.923798 101.378349,177.469757 101.042145,177.015717 
	C101.042145,177.015717 100.843460,176.652145 100.931870,176.011536 
	C100.975044,174.496796 100.929810,173.622650 100.884567,172.748505 
z"/>
<path fill="#EDF7F8" opacity="1.000000" stroke="none" 
	d="
M112.912979,151.105469 
	C113.542351,151.306885 114.611298,151.831726 114.736168,151.661987 
	C117.215027,148.292709 120.718712,148.930298 124.507011,149.597656 
	C124.609169,152.159042 124.321419,154.247650 124.042267,156.273880 
	C116.809906,156.149094 113.188370,159.723602 113.780663,167.191696 
	C114.091911,171.116089 113.835625,175.085510 113.835625,179.324905 
	C111.042641,179.538879 108.766914,179.713226 106.281944,179.460770 
	C106.072701,169.130341 106.072701,159.226715 106.072701,147.757706 
	C108.843292,149.113678 110.878136,150.109573 112.912979,151.105469 
z"/>
<path fill="#1A79CB" opacity="1.000000" stroke="none" 
	d="
M162.790039,149.145233 
	C154.991959,154.829788 155.548004,161.587982 164.601364,166.019104 
	C166.092346,166.748886 167.751511,167.256302 169.036560,168.249817 
	C170.207718,169.155289 170.976303,170.581467 171.922333,171.778137 
	C170.388580,172.504608 168.869720,173.797424 167.317902,173.838272 
	C164.198654,173.920410 161.061417,173.319748 157.466751,172.692764 
	C156.499908,170.761948 155.997925,169.139221 155.381317,167.145920 
	C153.604324,167.904602 152.331985,168.447815 150.708420,168.799149 
	C147.636765,168.470505 144.916351,168.333755 141.817993,168.194962 
	C140.936249,168.203476 140.432465,168.214035 139.552094,168.188339 
	C138.164368,168.098099 137.153214,168.044128 136.142075,167.990143 
	C137.007858,167.423477 137.854095,166.405853 138.742737,166.367355 
	C142.814087,166.191071 146.903503,166.151703 150.974045,166.336456 
	C153.692276,166.459824 154.422668,165.207703 154.304565,162.395477 
	C155.195251,161.393829 156.558746,160.903305 156.627167,160.272308 
	C156.780807,158.855591 156.168167,157.376053 156.085785,155.909805 
	C155.784058,150.539398 156.931366,149.330978 162.790039,149.145233 
z"/>
<path fill="#0F72CA" opacity="1.000000" stroke="none" 
	d="
M77.887146,158.928391 
	C77.566978,165.798340 76.871063,172.771835 83.273743,178.119507 
	C81.395515,177.336411 79.341476,176.271439 77.722664,175.432114 
	C76.060829,176.981842 74.285667,178.637238 72.242363,180.104126 
	C73.007195,170.383011 75.162712,160.766968 69.702179,151.361725 
	C71.821030,153.253326 74.115372,155.487076 76.715591,157.846893 
	C77.021484,157.972977 77.027618,157.973907 77.150238,158.150986 
	C77.454231,158.552109 77.658997,158.752213 77.887146,158.928391 
z"/>
<path fill="#0B6DC4" opacity="1.000000" stroke="none" 
	d="
M86.060944,103.028542 
	C86.060944,103.028542 86.531364,102.924316 87.061020,102.836052 
	C87.739799,102.172707 87.888931,101.597633 88.038063,101.022552 
	C88.038063,101.022552 88.002419,100.996803 88.407166,100.992165 
	C89.598061,101.995850 90.384224,103.004166 91.170387,104.012482 
	C90.379646,106.960236 89.588905,109.907982 88.501984,113.056137 
	C87.384789,106.916420 82.241768,110.180679 78.651009,109.431755 
	C79.065468,109.902000 79.479927,110.372246 80.760010,111.824654 
	C75.689690,111.824654 71.426872,111.857986 67.171684,111.693733 
	C67.013680,111.687630 66.930008,109.755356 66.915184,108.437897 
	C72.756409,107.106110 78.494148,106.057121 84.907043,104.869324 
	C85.741791,104.163177 85.901367,103.595856 86.060944,103.028542 
z"/>
<path fill="#076FC6" opacity="1.000000" stroke="none" 
	d="
M125.335388,141.798035 
	C137.268280,142.806168 148.918320,140.640564 160.577927,136.110107 
	C161.785797,136.756638 162.630295,137.453812 163.474808,138.150986 
	C163.403854,138.653244 163.332916,139.155502 163.261963,139.657761 
	C161.598801,139.657761 159.911728,139.501404 158.286560,139.749863 
	C157.776993,139.827774 157.433975,140.995117 156.653214,141.904297 
	C154.544785,142.765167 152.797867,143.385544 150.616608,144.000687 
	C148.455231,143.998184 146.728195,144.000931 144.553864,144.002228 
	C139.066193,143.675018 134.025803,143.349243 128.985428,143.023468 
	C127.849831,142.704163 126.714241,142.384842 125.335388,141.798035 
z"/>
<path fill="#0E64B3" opacity="1.000000" stroke="none" 
	d="
M106.491188,179.887573 
	C108.766914,179.713226 111.042641,179.538879 113.835625,179.324905 
	C113.835625,175.085510 114.091911,171.116089 113.780663,167.191696 
	C113.188370,159.723602 116.809906,156.149094 124.042267,156.273880 
	C124.321419,154.247650 124.609169,152.159042 124.934189,149.672775 
	C127.112488,154.616730 125.983879,157.507248 121.065437,158.600098 
	C118.116234,159.255417 116.887207,160.882706 116.953392,163.802063 
	C117.016983,166.607391 116.979462,169.416122 116.935791,172.222565 
	C116.815277,179.967316 115.212631,181.511200 107.400848,181.110748 
	C106.500610,180.899979 105.992805,180.672577 105.629669,180.226746 
	C106.013290,179.968079 106.252243,179.927826 106.491188,179.887573 
M116.010033,165.251312 
	C115.962990,164.472977 115.915955,163.694656 115.868919,162.916321 
	C115.595016,162.932236 115.321121,162.948135 115.047218,162.964050 
	C115.223587,164.353088 115.399948,165.742142 115.576302,167.131195 
	C115.678329,167.008911 115.836800,166.900482 115.870918,166.761520 
	C115.947426,166.449936 115.962112,166.123169 116.010033,165.251312 
z"/>
<path fill="#1F6CAF" opacity="1.000000" stroke="none" 
	d="
M90.230553,135.881287 
	C101.216103,127.450668 106.551506,115.947449 108.767570,102.251831 
	C111.752625,107.219566 108.941101,112.083977 106.943390,116.478020 
	C103.663818,123.691521 100.526855,131.340469 93.035583,135.600281 
	C92.311050,136.012283 91.314758,135.946396 90.230553,135.881287 
z"/>
<path fill="#217CCD" opacity="1.000000" stroke="none" 
	d="
M106.281944,179.460770 
	C106.252243,179.927826 106.013290,179.968079 105.413925,180.051239 
	C104.984047,175.553986 105.264290,170.972458 104.733269,166.486954 
	C104.316727,162.968491 107.045631,157.688599 100.119919,156.786362 
	C100.125076,154.868195 100.463432,152.945953 100.762680,150.643433 
	C105.157906,148.969208 109.592255,147.675247 115.147873,146.054092 
	C114.028282,148.529526 113.575027,149.531677 113.017380,150.819641 
	C110.878136,150.109573 108.843292,149.113678 106.072701,147.757706 
	C106.072701,159.226715 106.072701,169.130341 106.281944,179.460770 
z"/>
<path fill="#1A79CB" opacity="1.000000" stroke="none" 
	d="
M157.170380,175.936111 
	C157.458908,176.382065 157.747437,176.828018 157.911896,177.823639 
	C157.514633,178.887115 157.241455,179.400909 156.968277,179.914703 
	C153.826279,180.796494 150.684296,181.678284 147.271301,182.779877 
	C147.000305,182.999695 146.997025,183.005753 146.997025,183.005753 
	C144.055145,183.250320 141.116852,183.561218 138.170349,183.719788 
	C135.516724,183.862579 135.771576,182.088608 135.987289,180.140289 
	C141.960129,181.234619 147.997559,182.062958 153.749146,176.969757 
	C155.330444,176.524704 156.250412,176.230408 157.170380,175.936111 
z"/>
<path fill="#1A77C5" opacity="1.000000" stroke="none" 
	d="
M51.972801,157.447784 
	C54.874313,156.670090 57.736088,155.941986 60.586113,155.985382 
	C61.714699,156.002563 62.817188,157.734222 63.931564,158.685272 
	C62.844093,159.345291 61.832680,160.316986 60.654320,160.604553 
	C57.608955,161.347702 54.489914,161.788910 51.028461,162.458313 
	C51.080540,160.979446 51.504452,159.392975 51.972801,157.447784 
z"/>
<path fill="#127DD5" opacity="1.000000" stroke="none" 
	d="
M151.050949,144.005920 
	C152.797867,143.385544 154.544785,142.765167 156.631317,142.074387 
	C155.354065,145.527161 153.737228,149.050323 151.998047,152.928558 
	C149.183197,151.821930 146.490662,150.360214 143.660370,148.623962 
	C144.322342,147.895477 145.122070,147.441513 146.301666,146.990189 
	C148.137985,145.997192 149.594467,145.001556 151.050949,144.005920 
z"/>
<path fill="#2C79BC" opacity="1.000000" stroke="none" 
	d="
M109.395515,99.846214 
	C108.708595,91.339142 108.340118,82.621017 108.032455,73.491867 
	C108.893883,74.631874 110.378204,76.182755 110.378517,77.733940 
	C110.379990,85.034302 109.974335,92.334740 109.395515,99.846214 
z"/>
<path fill="#E3F4F5" opacity="1.000000" stroke="none" 
	d="
M48.726677,91.592972 
	C49.774559,91.585190 51.322712,91.619522 51.827492,92.362610 
	C54.672512,96.550804 57.266792,100.909332 59.978348,105.533539 
	C54.098019,102.974487 51.060658,97.761032 48.726677,91.592972 
z"/>
<path fill="#0473D1" opacity="1.000000" stroke="none" 
	d="
M129.058212,143.355865 
	C134.025803,143.349243 139.066193,143.675018 144.552032,144.334229 
	C144.988495,145.110306 144.979492,145.552963 144.523865,146.002930 
	C140.068665,146.345352 136.060089,146.680435 132.051498,147.015503 
	C131.598984,147.017075 131.146454,147.018631 130.346802,147.010742 
	C129.999680,147.001297 129.979202,146.985886 129.979202,146.985886 
	C129.696472,145.886673 129.413727,144.787460 129.058212,143.355865 
M133.086853,145.508865 
	C133.086853,145.508865 133.025879,145.577240 133.086853,145.508865 
z"/>
<path fill="#0B6DC4" opacity="1.000000" stroke="none" 
	d="
M77.020699,123.416550 
	C71.019936,124.212212 64.660019,124.936577 58.287212,125.520241 
	C56.679787,125.667465 55.031158,125.364777 53.139107,125.559578 
	C53.278706,125.276512 53.656521,124.221939 54.086205,124.200371 
	C61.605953,123.822830 69.132050,123.571709 77.020699,123.416550 
z"/>
<path fill="#E3F4F5" opacity="1.000000" stroke="none" 
	d="
M48.925529,65.630630 
	C49.010132,73.684647 48.929836,82.057709 48.792702,90.843460 
	C45.638607,82.817619 46.243420,74.382706 48.925529,65.630630 
z"/>
<path fill="#1771BD" opacity="1.000000" stroke="none" 
	d="
M118.869766,67.322830 
	C117.613396,75.831917 117.309303,84.547401 120.154068,93.551476 
	C118.883186,88.332695 117.119576,82.756844 116.507416,77.057320 
	C116.179787,74.006905 117.835747,70.743439 118.869766,67.322830 
z"/>
<path fill="#237CC4" opacity="1.000000" stroke="none" 
	d="
M150.903748,122.240234 
	C144.476913,126.494019 136.981476,126.223602 129.091736,125.378036 
	C133.779510,124.790146 138.812607,124.458260 143.845688,124.126366 
	C143.891617,123.639343 143.937546,123.152313 143.983459,122.665283 
	C142.313644,122.282440 140.643814,121.899605 138.973999,121.516762 
	C138.995895,121.348366 139.017792,121.179970 139.039688,121.011566 
	C142.867828,121.408287 146.695953,121.805000 150.903748,122.240234 
z"/>
<path fill="#246CAA" opacity="1.000000" stroke="none" 
	d="
M168.767181,159.020081 
	C167.823639,158.294098 166.835159,157.237991 165.846695,156.181900 
	C167.163147,155.699326 168.524658,154.725800 169.786179,154.841614 
	C172.056183,155.050034 174.266220,155.911560 177.116531,156.662262 
	C177.677658,155.444443 178.340698,154.005432 179.409058,152.271790 
	C180.145844,152.013504 180.477325,152.049850 180.808823,152.086197 
	C179.502975,157.305283 176.956894,159.767395 171.485672,156.581589 
	C171.103394,156.358978 169.667953,157.944992 168.767181,159.020081 
z"/>
<path fill="#1A79CB" opacity="1.000000" stroke="none" 
	d="
M180.765656,151.725266 
	C180.477325,152.049850 180.145844,152.013504 179.564835,151.945053 
	C174.782211,147.730164 169.326096,148.803879 163.524551,149.242676 
	C168.134903,145.623291 177.407013,146.726013 180.765656,151.725266 
z"/>
<path fill="#147DDB" opacity="1.000000" stroke="none" 
	d="
M132.248886,147.230301 
	C136.060089,146.680435 140.068665,146.345352 144.702515,146.149353 
	C145.556259,146.495605 145.754272,146.728638 145.921814,146.987549 
	C145.122070,147.441513 144.322342,147.895477 143.304443,148.516357 
	C140.378952,148.797989 137.671585,148.912689 134.518219,149.078522 
	C133.530243,148.568130 132.988251,148.006622 132.248886,147.230301 
z"/>
<path fill="#0676D7" opacity="1.000000" stroke="none" 
	d="
M89.628304,181.686615 
	C90.551277,181.457535 91.474251,181.228439 92.704254,181.419403 
	C93.017380,182.552139 93.023468,183.264832 93.029556,183.977509 
	C90.922821,184.182434 88.671753,184.927902 86.756271,184.416489 
	C85.297585,184.027023 84.264854,182.042160 83.387070,180.461807 
	C84.925438,180.353409 86.119354,180.550278 87.313271,180.747131 
	C87.313271,180.747147 87.090683,180.817719 87.334641,180.943588 
	C88.261826,181.275177 88.945061,181.480896 89.628304,181.686615 
z"/>
<path fill="#1569B6" opacity="1.000000" stroke="none" 
	d="
M157.352997,180.079315 
	C157.241455,179.400909 157.514633,178.887115 157.925568,178.116135 
	C163.504211,181.114471 169.165543,180.240372 175.255035,178.665039 
	C175.737732,179.112900 175.824860,179.651245 175.955994,180.594803 
	C176.000000,181.000000 176.003311,180.994934 176.003311,180.994934 
	C169.914780,180.744598 163.826233,180.494247 157.352997,180.079315 
z"/>
<path fill="#217CCD" opacity="1.000000" stroke="none" 
	d="
M100.647491,149.929901 
	C96.450203,149.875702 92.163254,149.473160 87.414116,149.065887 
	C91.610176,146.020157 96.145035,146.205383 100.647491,149.929901 
z"/>
<path fill="#217CCD" opacity="1.000000" stroke="none" 
	d="
M83.860367,150.213806 
	C82.370041,152.700104 80.498199,155.159607 78.107582,157.824921 
	C77.401741,158.011810 77.214684,157.992859 77.027618,157.973907 
	C77.027618,157.973907 77.021484,157.972977 77.033356,157.959412 
	C78.122932,154.474945 78.423546,150.359680 83.860367,150.213806 
z"/>
<path fill="#0F72CA" opacity="1.000000" stroke="none" 
	d="
M93.423630,183.978516 
	C93.023468,183.264832 93.017380,182.552139 93.013687,181.482727 
	C94.809380,180.650162 96.602669,180.174332 98.704781,179.548416 
	C98.469292,180.739166 97.924995,182.080017 97.176315,183.695755 
	C95.920517,183.973618 94.869110,183.976562 93.423630,183.978516 
z"/>
<path fill="#1771BD" opacity="1.000000" stroke="none" 
	d="
M123.117310,99.182167 
	C125.251465,100.730476 127.370209,102.656189 129.711563,104.829834 
	C126.237564,104.995506 123.716621,103.457619 123.117310,99.182167 
z"/>
<path fill="#1A77C5" opacity="1.000000" stroke="none" 
	d="
M46.231209,173.683929 
	C48.249062,175.554474 50.222313,177.856674 52.264809,180.504929 
	C47.992844,180.697830 46.159157,178.256027 46.231209,173.683929 
z"/>
<path fill="#0B6DC4" opacity="1.000000" stroke="none" 
	d="
M88.079208,113.260895 
	C87.164093,115.118156 85.975403,117.121063 84.466034,119.276001 
	C83.910637,118.168922 83.675896,116.909798 83.421997,115.547905 
	C84.979050,114.787300 86.392342,114.096916 88.079208,113.260895 
z"/>
<path fill="#1569B6" opacity="1.000000" stroke="none" 
	d="
M176.003845,178.710083 
	C176.577438,177.690536 177.426315,176.869141 178.536682,175.889359 
	C178.875168,176.778030 178.952148,177.825058 179.029129,178.872101 
	C178.112457,178.884140 177.195786,178.896179 176.003845,178.710083 
z"/>
<path fill="#1A77C5" opacity="1.000000" stroke="none" 
	d="
M47.077431,165.345032 
	C47.042233,167.510086 46.698814,169.888947 46.328140,172.675171 
	C46.456993,170.574646 46.613102,168.066757 47.077431,165.345032 
z"/>
<path fill="#1771BD" opacity="1.000000" stroke="none" 
	d="
M120.093239,94.219437 
	C121.083794,95.311844 122.072174,96.776993 123.132767,98.574768 
	C122.167015,97.468987 121.129036,96.030586 120.093239,94.219437 
z"/>
<path fill="#0B6DC4" opacity="1.000000" stroke="none" 
	d="
M81.707855,121.051361 
	C80.723221,121.871750 79.371376,122.692703 77.670021,123.559586 
	C78.660545,122.754326 80.000587,121.903130 81.707855,121.051361 
z"/>
<path fill="#1A77C5" opacity="1.000000" stroke="none" 
	d="
M50.019669,162.581085 
	C49.530571,163.470047 48.678699,164.259705 47.566177,165.182953 
	C48.089325,164.371613 48.873112,163.426712 50.019669,162.581085 
z"/>
<path fill="#246CAA" opacity="1.000000" stroke="none" 
	d="
M172.794189,160.915588 
	C171.697937,160.760941 170.402969,160.307739 168.927582,159.559570 
	C170.029938,159.715408 171.312698,160.166214 172.794189,160.915588 
z"/>
<path fill="#0F72CA" opacity="1.000000" stroke="none" 
	d="
M87.257217,180.412476 
	C86.119354,180.550278 84.925438,180.353409 83.374771,180.086823 
	C83.117760,179.758575 83.217491,179.500031 83.497841,178.867020 
	C84.852684,179.020996 86.026917,179.549423 87.257217,180.412476 
z"/>
<path fill="#1A79CB" opacity="1.000000" stroke="none" 
	d="
M147.003418,182.996948 
	C147.206268,183.139053 147.405975,183.283920 147.605698,183.428772 
	C147.468292,183.349258 147.330887,183.269760 147.095245,183.098007 
	C146.997025,183.005753 147.000305,182.999695 147.003418,182.996948 
z"/>
<path fill="#237CC4" opacity="1.000000" stroke="none" 
	d="
M152.938416,121.114609 
	C152.771942,121.461212 152.285034,121.869125 151.468842,122.327087 
	C151.632355,121.976723 152.125183,121.576317 152.938416,121.114609 
z"/>
<path fill="#217CCD" opacity="1.000000" stroke="none" 
	d="
M86.231537,149.195953 
	C85.992210,149.510956 85.400223,149.854263 84.461174,150.253540 
	C84.702370,149.947754 85.290619,149.586014 86.231537,149.195953 
z"/>
<path fill="#246CAA" opacity="1.000000" stroke="none" 
	d="
M174.642853,161.935303 
	C174.260223,161.989822 173.694244,161.812576 172.962952,161.374954 
	C173.351593,161.310883 173.905563,161.507202 174.642853,161.935303 
z"/>
<path fill="#0B6DC4" opacity="1.000000" stroke="none" 
	d="
M83.057373,120.319366 
	C83.049545,120.481422 82.807922,120.760674 82.276703,121.054901 
	C82.265930,120.858772 82.544754,120.647667 83.057373,120.319366 
z"/>
<path fill="#0473D1" opacity="1.000000" stroke="none" 
	d="
M130.007431,147.011627 
	C130.015182,147.021957 129.883621,147.050461 129.931412,147.018173 
	C129.979202,146.985886 129.999680,147.001297 130.007431,147.011627 
z"/>
<path fill="#1569B6" opacity="1.000000" stroke="none" 
	d="
M175.997589,181.001587 
	C175.995163,181.003159 176.051346,181.082626 176.027328,181.038788 
	C176.003311,180.994934 176.000000,181.000000 175.997589,181.001587 
z"/>
<path fill="#0677D7" opacity="1.000000" stroke="none" 
	d="
M138.820572,69.831306 
	C140.067627,65.585052 143.053268,63.842777 147.317413,63.855686 
	C151.850754,63.869411 156.302567,63.847675 158.336792,69.183113 
	C159.083282,71.141075 160.706818,72.797096 161.288864,74.779213 
	C163.014374,80.655121 162.125946,86.041313 157.066879,90.063354 
	C152.176788,93.951057 146.373505,94.054108 140.176834,89.910400 
	C139.586685,82.756187 139.203629,76.293747 138.820572,69.831306 
z"/>
<path fill="#1B73B9" opacity="1.000000" stroke="none" 
	d="
M138.450226,69.918068 
	C139.203629,76.293747 139.586685,82.756187 139.996368,89.590408 
	C134.940201,83.741539 134.753540,77.044205 138.450226,69.918068 
z"/>
<path fill="#0876D3" opacity="1.000000" stroke="none" 
	d="
M87.674927,88.832680 
	C87.674927,88.832680 87.284279,88.969009 86.843132,89.257355 
	C80.974434,94.008423 75.182152,93.939270 69.153564,90.933853 
	C68.771248,90.444603 68.388924,89.955353 67.678955,88.949921 
	C66.581749,86.599594 65.812195,84.765450 65.042648,82.931297 
	C65.587570,78.523727 65.444511,73.883095 66.840034,69.763680 
	C68.889931,63.712631 72.711906,62.203171 81.299660,63.704250 
	C85.734802,64.479485 88.250999,68.121025 89.105728,72.463600 
	C89.794907,75.965096 89.958366,79.570053 90.204391,83.879868 
	C89.260796,86.031303 88.467857,87.431992 87.674927,88.832680 
z"/>
<path fill="#DCF0F5" opacity="1.000000" stroke="none" 
	d="
M68.939240,91.142975 
	C75.182152,93.939270 80.974434,94.008423 86.718300,89.422318 
	C86.157074,93.081566 84.087532,94.900551 79.931320,94.298553 
	C76.838272,93.850540 73.638084,94.170692 70.525352,93.807831 
	C69.839104,93.727837 69.320633,92.208595 68.939240,91.142975 
z"/>
<path fill="#EBF5F6" opacity="1.000000" stroke="none" 
	d="
M91.467178,103.841232 
	C90.384224,103.004166 89.598061,101.995850 88.418808,101.010361 
	C87.946259,99.764595 87.866806,98.496002 87.784637,97.184105 
	C93.825348,98.015205 94.112785,98.515564 91.467178,103.841232 
z"/>
<path fill="#DCF0F5" opacity="1.000000" stroke="none" 
	d="
M65.000046,83.332489 
	C65.812195,84.765450 66.581749,86.599594 67.438461,88.751312 
	C66.714684,88.788452 65.310020,88.650162 65.202560,88.201309 
	C64.860931,86.774330 65.002571,85.231651 65.000046,83.332489 
z"/>
<path fill="#DCF0F5" opacity="1.000000" stroke="none" 
	d="
M88.031479,88.818466 
	C88.467857,87.431992 89.260796,86.031303 90.238800,84.336815 
	C89.745262,85.630089 89.066650,87.217163 88.031479,88.818466 
z"/>
<path fill="#EBF5F6" opacity="1.000000" stroke="none" 
	d="
M87.843597,101.196068 
	C87.888931,101.597633 87.739799,102.172707 87.289116,102.758507 
	C87.208084,102.302681 87.428612,101.836136 87.843597,101.196068 
z"/>
<path fill="#EBF5F6" opacity="1.000000" stroke="none" 
	d="
M85.863892,103.197159 
	C85.901367,103.595856 85.741791,104.163177 85.282074,104.737869 
	C85.210243,104.285423 85.438545,103.825600 85.863892,103.197159 
z"/>
<path fill="#1074CE" opacity="1.000000" stroke="none" 
	d="
M63.198296,171.334930 
	C61.031952,172.043823 58.865608,172.752701 56.421936,172.841187 
	C55.911301,169.071564 57.735683,167.361526 60.516712,167.502991 
	C61.473068,167.551636 62.307930,169.988876 63.198296,171.334930 
z"/>
<path fill="#1867AE" opacity="1.000000" stroke="none" 
	d="
M63.489799,171.089355 
	C62.307930,169.988876 61.473068,167.551636 60.516712,167.502991 
	C57.735683,167.361526 55.911301,169.071564 56.161053,172.607361 
	C53.111065,169.960846 54.295490,167.565048 57.669292,166.259384 
	C59.697666,165.474396 62.137463,165.752502 65.193428,165.481918 
	C64.579338,167.813614 64.180321,169.328690 63.489799,171.089355 
z"/>
<path fill="#1078D2" opacity="1.000000" stroke="none" 
	d="
M157.102509,175.591919 
	C156.250412,176.230408 155.330444,176.524704 154.048737,176.853638 
	C153.310577,175.392349 152.934143,173.896454 152.604431,172.586227 
	C148.449539,172.934082 144.509384,173.263977 140.231567,173.034821 
	C139.905487,171.058716 139.917068,169.641663 139.928650,168.224609 
	C140.432465,168.214035 140.936249,168.203476 142.043121,168.393768 
	C145.450684,168.726761 148.255173,168.858887 151.059647,168.991028 
	C152.331985,168.447815 153.604324,167.904602 155.381317,167.145920 
	C155.997925,169.139221 156.499908,170.761948 157.036224,172.764404 
	C157.058578,173.845322 157.046616,174.546539 157.102509,175.591919 
z"/>
<path fill="#0E6ECA" opacity="1.000000" stroke="none" 
	d="
M144.873520,156.783539 
	C145.717148,158.046936 146.177368,159.195572 146.814026,160.784592 
	C142.976471,160.784592 139.740875,160.784592 136.491974,160.784592 
	C137.344208,155.455292 138.366974,154.935608 144.873520,156.783539 
z"/>
<path fill="#0A70C6" opacity="1.000000" stroke="none" 
	d="
M139.552078,168.188339 
	C139.917068,169.641663 139.905487,171.058716 139.934677,172.786316 
	C138.701370,171.631836 137.427277,170.166794 136.147644,168.345947 
	C137.153214,168.044128 138.164368,168.098099 139.552078,168.188339 
z"/>
<path fill="#0F72CA" opacity="1.000000" stroke="none" 
	d="
M100.947739,177.269516 
	C101.378349,177.469757 101.714554,177.923798 102.050758,178.377838 
	C101.348404,178.651001 100.646057,178.924179 99.644424,179.122864 
	C99.847870,178.540024 100.350609,178.031677 100.947739,177.269516 
z"/>
<path fill="#217CCD" opacity="1.000000" stroke="none" 
	d="
M100.745148,173.016327 
	C100.929810,173.622650 100.975044,174.496796 100.959900,175.806290 
	C100.801590,175.255814 100.703667,174.269974 100.745148,173.016327 
z"/>
<path fill="#0F72CA" opacity="1.000000" stroke="none" 
	d="
M89.422104,181.367416 
	C88.945061,181.480896 88.261826,181.275177 87.301178,180.831726 
	C87.754486,180.745407 88.485191,180.896820 89.422104,181.367416 
z"/>
<path fill="#0277DA" opacity="1.000000" stroke="none" 
	d="
M77.150238,158.150986 
	C77.214684,157.992859 77.401741,158.011810 77.869156,158.060547 
	C78.149498,158.090347 78.129364,158.544800 78.008255,158.736603 
	C77.658997,158.752213 77.454231,158.552109 77.150238,158.150986 
z"/>
<path fill="#0A70C6" opacity="1.000000" stroke="none" 
	d="
M150.708420,168.799149 
	C148.255173,168.858887 145.450684,168.726761 142.421066,168.395813 
	C144.916351,168.333755 147.636765,168.470505 150.708420,168.799149 
z"/>
<path fill="#0277DA" opacity="1.000000" stroke="none" 
	d="
M146.301666,146.990189 
	C145.754272,146.728638 145.556259,146.495605 145.149139,146.142029 
	C144.979492,145.552963 144.988495,145.110306 144.999313,144.335663 
	C146.728195,144.000931 148.455231,143.998184 150.616608,144.000671 
	C149.594467,145.001556 148.137985,145.997192 146.301666,146.990189 
z"/>
<path fill="#0277DA" opacity="1.000000" stroke="none" 
	d="
M116.006004,165.526947 
	C115.962112,166.123169 115.947426,166.449936 115.870918,166.761520 
	C115.836800,166.900482 115.678329,167.008911 115.576309,167.131195 
	C115.399948,165.742142 115.223587,164.353088 115.047218,162.964050 
	C115.321121,162.948135 115.595016,162.932236 115.868919,162.916321 
	C115.915955,163.694656 115.962990,164.472977 116.006004,165.526947 
z"/>
<path fill="#0277DA" opacity="1.000000" stroke="none" 
	d="
M133.056366,145.543060 
	C133.025879,145.577240 133.086853,145.508865 133.056366,145.543060 
z"/>
</svg>